<svg id="Group_2740" data-name="Group 2740" xmlns="http://www.w3.org/2000/svg" width="39" height="39" viewBox="0 0 39 39">
  <circle id="Ellipse_6" data-name="Ellipse 6" cx="19.5" cy="19.5" r="19.5" fill="#3d44db" opacity="0.1"/>
  <path id="Title" d="M6-4.5H4.328L2.828-3H6a.5.5,0,0,1,.5.5V0A.5.5,0,0,1,6,.5H-6A.5.5,0,0,1-6.5,0V-2.5A.5.5,0,0,1-6-3h3.172l-1.5-1.5H-6a2,2,0,0,0-2,2V0A2,2,0,0,0-6,2H6A2,2,0,0,0,8,0V-2.5A2,2,0,0,0,6-4.5ZM5.5-1.25A.75.75,0,0,0,4.75-2,.749.749,0,0,0,4-1.25a.75.75,0,0,0,.75.75A.749.749,0,0,0,5.5-1.25ZM-.531-2.5A.674.674,0,0,0,0-2.25a.745.745,0,0,0,.53-.22L4.78-6.72a.75.75,0,0,0,0-1.061.75.75,0,0,0-1.061,0L.75-4.809V-13.25A.749.749,0,0,0,0-14a.749.749,0,0,0-.75.75v8.441l-3-2.972a.75.75,0,0,0-1.061,0,.75.75,0,0,0,0,1.061Z" transform="translate(20 26)" fill="#3d44db"/>
</svg>
