<svg id="Group_2740" data-name="Group 2740" xmlns="http://www.w3.org/2000/svg" width="39" height="39" viewBox="0 0 39 39">
  <circle id="Ellipse_6" data-name="Ellipse 6" cx="19.5" cy="19.5" r="19.5" fill="#3d44db" opacity="0.1"/>
  <path id="Title" d="M-2.534-3.834a1.551,1.551,0,0,1,.117-2.32A1.674,1.674,0,0,1-.23-6.006l.23.23.23-.23a1.668,1.668,0,0,1,2.188-.148,1.548,1.548,0,0,1,.117,2.32L.266-1.608a.38.38,0,0,1-.531,0L-2.534-3.834ZM7-8.475V-1A2,2,0,0,1,5,1H-5A2,2,0,0,1-7-1V-8.475a1.927,1.927,0,0,1,.257-.981l1.42-2.524A2,2,0,0,1-3.581-13H3.578a2,2,0,0,1,1.743,1.019l1.42,2.524A1.9,1.9,0,0,1,7-8.475ZM.719-9.041H5.256l-1.24-2.2a.5.5,0,0,0-.435-.256H.72v2.459Zm-5.974,0H-.781V-11.5h-2.8a.5.5,0,0,0-.436.255l-1.238,2.2ZM5.5-7.541h-11V-1A.5.5,0,0,0-5-.5H5A.5.5,0,0,0,5.5-1V-7.541Z" transform="translate(20 26)" fill="#3d44db"/>
</svg>
