<svg xmlns="http://www.w3.org/2000/svg" width="16" height="11.4" viewBox="0 0 16 11.4">
  <g id="Group" transform="translate(0)">
    <path id="Combined-Shape" d="M6.666,5.067a1.952,1.952,0,0,1,2-1.9,1.952,1.952,0,0,1,2,1.9,1.952,1.952,0,0,1-2,1.9A1.952,1.952,0,0,1,6.666,5.067ZM0,2.533A2.6,2.6,0,0,1,2.667,0,2.6,2.6,0,0,1,5.333,2.533,2.6,2.6,0,0,1,2.667,5.067,2.6,2.6,0,0,1,0,2.533Z" transform="translate(3.334)" fill="#fff" opacity="0.3"/>
    <path id="Combined-Shape-2" data-name="Combined-Shape" d="M13.067,5.067a6.1,6.1,0,0,0-1.333-3.8C14.006,1.291,15.86,2.381,16,4.686a.328.328,0,0,1-.362.381Zm-12.582,0c-.167,0-.5-.343-.484-.508C.259,1.537,2.841,0,5.99,0,9.181,0,11.8,1.453,12,4.56a.442.442,0,0,1-.5.507Z" transform="translate(0 6.333)" fill="#fff"/>
  </g>
</svg>
