<svg id="Group_2740" data-name="Group 2740" xmlns="http://www.w3.org/2000/svg" width="39" height="39" viewBox="0 0 39 39">
  <circle id="Ellipse_6" data-name="Ellipse 6" cx="19.5" cy="19.5" r="19.5" fill="#3d44db" opacity="0.1"/>
  <path id="Title" d="M-7.25-9.25H3l0,2.5a.75.75,0,0,0,.45.688A.751.751,0,0,0,4.26-6.2l3.5-3.25a.751.751,0,0,0,0-1.1L4.26-13.8a.751.751,0,0,0-.81-.138A.75.75,0,0,0,3-13.25l0,2.5H-7.25a.744.744,0,0,0-.75.722A.793.793,0,0,0-7.25-9.25Zm14.5,6.5H-3l0-2.528a.75.75,0,0,0-.45-.687.757.757,0,0,0-.809.166l-3.5,3.25a.751.751,0,0,0,0,1.1l3.5,3.25a.751.751,0,0,0,.81.138A.75.75,0,0,0-3,1.25l0-2.5H7.25A.75.75,0,0,0,8-2,.749.749,0,0,0,7.25-2.75Z" transform="translate(20 26)" fill="#3d44db"/>
</svg>
