<svg id="Group_2740" data-name="Group 2740" xmlns="http://www.w3.org/2000/svg" width="39" height="39" viewBox="0 0 39 39">
  <circle id="Ellipse_6" data-name="Ellipse 6" cx="19.5" cy="19.5" r="19.5" fill="#3d44db" opacity="0.1"/>
  <path id="Title" d="M5.878-11.877A7.259,7.259,0,0,0,.75-14,.745.745,0,0,0,0-13.278a.72.72,0,0,0,.722.722,5.713,5.713,0,0,1,4.066,1.684A5.712,5.712,0,0,1,6.471-6.807a.72.72,0,0,0,.722.722A.678.678,0,0,0,8-6.778,7.187,7.187,0,0,0,5.878-11.877ZM1.706-6.294a1,1,0,0,0,0-1.414A1.022,1.022,0,0,0,1-8.028a1,1,0,0,0-.707.293,1,1,0,0,0,0,1.414A1,1,0,0,0,1-6.028.959.959,0,0,0,1.706-6.294ZM.722-11a.744.744,0,0,0-.75.722.738.738,0,0,0,.722.722,2.754,2.754,0,0,1,2.75,2.75.72.72,0,0,0,.722.722c.386,0,.834-.25.834-.666a4.237,4.237,0,0,0-1.246-3A4.253,4.253,0,0,0,.722-11ZM1.5,0A.5.5,0,0,1,1,.5H-6A.5.5,0,0,1-6.5,0V-12a.5.5,0,0,1,.5-.5h5V-14H-6a2,2,0,0,0-2,2V0A2,2,0,0,0-6,2H1A2,2,0,0,0,3,0V-5H1.5Zm-5-1.5A.5.5,0,0,0-4-1a.5.5,0,0,0,.5.5h2A.5.5,0,0,0-1-1a.5.5,0,0,0-.5-.5Z" transform="translate(20 26)" fill="#3d44db"/>
</svg>
