<svg id="Group_2740" data-name="Group 2740" xmlns="http://www.w3.org/2000/svg" width="39" height="39" viewBox="0 0 39 39">
  <circle id="Ellipse_6" data-name="Ellipse 6" cx="19.5" cy="19.5" r="19.5" fill="#3d44db" opacity="0.1"/>
  <path id="Title" d="M0-12c-4.419,0-8,2.016-8,4.5V-4c0,2.211,3.581,4,8,4S8-1.789,8-4V-7.5C8-9.984,4.419-12,0-12ZM-5.25-2.644C-6.051-3.091-6.5-3.587-6.5-4v-.881a7.187,7.187,0,0,0,1.25.772v1.466Zm3,.963a10.748,10.748,0,0,1-2-.512v-1.5a11.725,11.725,0,0,0,2,.507Zm3.5.125C.85-1.519.434-1.5,0-1.5s-.852-.02-1.25-.055v-1.5C-.841-3.025-.425-3,0-3s.84-.023,1.25-.059Zm3-.631a11.052,11.052,0,0,1-2,.508v-1.5a11.719,11.719,0,0,0,2-.507ZM6.5-4c0,.414-.449.91-1.25,1.356V-4.109A7.093,7.093,0,0,0,6.5-4.883ZM0-4.5c-3.719,0-6.5-1.582-6.5-3s2.781-3,6.5-3,6.5,1.582,6.5,3S3.719-4.5,0-4.5Z" transform="translate(20 26)" fill="#3d44db"/>
</svg>
