<svg xmlns="http://www.w3.org/2000/svg" width="26.25" height="29.947" viewBox="0 0 26.25 29.947">
  <path id="Path_689" data-name="Path 689" d="M9.375-13.178l-.937.053v-4.687A8.446,8.446,0,0,0,0-26.25a8.446,8.446,0,0,0-8.437,8.438v4.688l-.937-.053a3.75,3.75,0,0,0-3.75,3.75V-.053A3.75,3.75,0,0,0-9.375,3.7H9.375a3.75,3.75,0,0,0,3.75-3.75V-9.428A3.788,3.788,0,0,0,9.375-13.178ZM-4.688-17.812A4.693,4.693,0,0,1,0-22.5a4.693,4.693,0,0,1,4.688,4.688v4.688H-4.688Z" transform="translate(13.125 26.25)" fill="#403f40"/>
</svg>
